PathFileType	4	(x/y/z)	A01_FAST_T0024.trc
DataRate	CameraRate	NumFrames	NumMarkers	Units	OrigDataRate	OrigDataStartFrame	OrigNumFrames
240	240	11	48	mm	240	73	290
Frame#	Time	TOP_HEAD			R_AC			L_AC			R_ASIS			L_ASIS			R_PSIS			L_PSIS			SACRAL			L_IC			R_IC			L_GT			R_GT			R_LAT_KNEE			R_MED_KNEE			L_MED_KNEE			L_LAT_KNEE			R_TOE			L_TOE			R_1ST_MET			L_1ST_MET			L_5TH_MET			R_5TH_MET			R_LAT_ANK			R_MED_ANK			L_MED_ANK			L_LAT_ANK			L_HEEL_SUP			R_HEEL_SUP			L_HEEL_LAT			R_HEEL_LAT			L_HEEL_MED			R_HEEL_MED			R_LL_PROX_POST			R_LL_PROX_ANT			R_LL_DIST_ANT			R_LL_DIST_POST			R_THIGH_PROX_POST			R_THIGH_PROX_ANT			R_THIGH_DIST_ANT			R_THIGH_DIST_POST			L_PROS_PROX_ANT			L_PROS_PROX_POST			L_PROS_DIST_POST			L_PROS_DIST_ANT			L_THIGH_PROX_ANT			L_THIGH_PROX_POST			L_THIGH_DIST_POST			L_THIGH_DIST_ANT			
		X1	Y1	Z1	X2	Y2	Z2	X3	Y3	Z3	X4	Y4	Z4	X5	Y5	Z5	X6	Y6	Z6	X7	Y7	Z7	X8	Y8	Z8	X9	Y9	Z9	X10	Y10	Z10	X11	Y11	Z11	X12	Y12	Z12	X13	Y13	Z13	X14	Y14	Z14	X15	Y15	Z15	X16	Y16	Z16	X17	Y17	Z17	X18	Y18	Z18	X19	Y19	Z19	X20	Y20	Z20	X21	Y21	Z21	X22	Y22	Z22	X23	Y23	Z23	X24	Y24	Z24	X25	Y25	Z25	X26	Y26	Z26	X27	Y27	Z27	X28	Y28	Z28	X29	Y29	Z29	X30	Y30	Z30	X31	Y31	Z31	X32	Y32	Z32	X33	Y33	Z33	X34	Y34	Z34	X35	Y35	Z35	X36	Y36	Z36	X37	Y37	Z37	X38	Y38	Z38	X39	Y39	Z39	X40	Y40	Z40	X41	Y41	Z41	X42	Y42	Z42	X43	Y43	Z43	X44	Y44	Z44	X45	Y45	Z45	X46	Y46	Z46	X47	Y47	Z47	X48	Y48	Z48	

73	0.30104	-151.41	1740.8	242.51	-388.01	1574.5	498.1	-416.8	1536.6	40.408	-421	1091.8	507.79	-395.93	1030.9	158.55	-627.39	1086.9	370.88	-612.86	1091.8	238.93	-635.86	1059.2	303.4	-421.09	1142	112.05	-448.83	1209	502.33	-456.08	951.26	117.5	-481.7	980.79	547.17	-435.07	576.96	523.15	-382.48	556.64	396.84	-377.26	564.42	344.26	-395.36	567.1	187.08	-682.11	71.358	407.5	-222.8	84.582	261.02	-736.11	129.56	351.39	-303	57.668	316.77	-330.06	46.766	186.49	-776.61	150.13	476.96	-779.89	286.24	452.3	-752.68	284.36	353.47	-430.05	126.83	295.21	-460.82	116.66	227.4	-546.81	71.806	268.05	-848.78	346.54	378.84	-533.62	44.019	236.45	-871.01	329.31	411.89	-525.73	42.523	301.18	-863.58	325.01	351.44	-611.48	523.16	497.26	-574.9	466.6	526.34	-623.95	413.12	502.67	-657.08	454.79	483.76	-497.78	831.22	538.54	-432.26	861.47	543.13	-414.66	771.55	545.71	-477.04	743.69	536.92	-351.66	483.84	202.39	-406.67	484.5	191.16	-414.65	422.88	200.87	-361.44	428.71	210.56	-374.97	815.89	155.73	-445.47	813.02	139.76	-426.51	740.15	154.56	-362.15	743.96	168.54
74	0.30522	-145.27	1741.4	242.91	-382.68	1575.1	498.45	-410.4	1537.4	40.586	-415.02	1092.7	507.43	-389.84	1031.4	158.26	-621.25	1087.5	370.54	-606.69	1092.6	238.58	-629.7	1059.9	303.02	-414.96	1142.7	111.88	-442.78	1209.6	502.18	-450.2	951.9	117.22	-475	981.62	546.87	-423.66	578.29	523.26	-370.54	558.52	396.95	-374.87	564.33	344.32	-392.94	567.12	187.16	-662.46	72.575	409.11	-222.71	84.478	261.03	-718.13	128.72	352.58	-302.94	57.643	316.77	-330.03	46.782	186.52	-758.97	149.21	478.13	-765.82	284.76	452.39	-738.69	282.92	353.54	-429.7	127.01	295.24	-460.5	116.97	227.43	-546.67	72.095	268.07	-836.49	342.85	378.6	-533.57	44.251	236.46	-858.22	325.31	411.74	-525.71	42.788	301.15	-850.72	320.77	351.38	-599.69	522.84	497.74	-562.53	466.59	526.63	-611.1	412.68	502.96	-644.67	454.06	484.18	-489.23	831.94	538.53	-423.97	862.9	543.02	-405.46	773.19	545.74	-467.54	744.64	537.09	-349.63	483.62	202.47	-404.65	484.57	191.22	-412.94	422.99	200.94	-359.69	428.56	210.64	-370.16	815.92	155.68	-440.67	813.58	139.64	-422.28	740.57	154.49	-357.91	743.9	168.54
75	0.3094	-139.13	1742	243.32	-377.35	1575.6	498.8	-404	1538.2	40.779	-409.09	1093.6	507.08	-383.77	1032	157.96	-615.11	1088.1	370.22	-600.53	1093.4	238.24	-623.54	1060.6	302.66	-408.88	1143.4	111.7	-436.75	1210.1	502.05	-444.33	952.51	116.94	-468.36	982.45	546.57	-412.32	579.64	523.33	-358.7	560.44	397.04	-372.51	564.23	344.41	-390.55	567.13	187.26	-642.68	73.657	410.66	-222.61	84.368	261.04	-699.96	127.73	353.74	-302.88	57.616	316.76	-330	46.798	186.54	-741.16	148.07	479.26	-751.59	282.99	452.52	-724.54	281.23	353.64	-429.35	127.19	295.27	-460.18	117.3	227.45	-546.52	72.405	268.08	-824	338.85	378.42	-533.52	44.501	236.48	-845.2	320.98	411.64	-525.69	43.071	301.11	-837.63	316.22	351.38	-587.92	522.38	498.2	-550.15	466.49	526.91	-598.2	412.11	503.25	-632.23	453.17	484.6	-480.77	832.67	538.49	-415.76	864.33	542.89	-396.37	774.84	545.74	-458.14	745.61	537.21	-347.64	483.41	202.58	-402.66	484.64	191.3	-411.25	423.1	201.03	-357.96	428.42	210.74	-365.38	815.93	155.64	-435.88	814.14	139.54	-418.08	740.99	154.44	-353.72	743.83	168.58
76	0.31358	-133.02	1742.6	243.75	-372.01	1576.2	499.15	-397.61	1539.1	40.987	-403.21	1094.5	506.74	-377.71	1032.5	157.67	-608.97	1088.7	369.91	-594.37	1094.2	237.91	-617.39	1061.3	302.32	-402.81	1144.2	111.52	-430.73	1210.6	501.93	-438.49	953.1	116.67	-461.75	983.29	546.28	-401.07	581.01	523.35	-346.98	562.39	397.1	-370.16	564.14	344.52	-388.21	567.15	187.37	-622.79	74.608	412.16	-222.51	84.25	261.05	-681.64	126.6	354.87	-302.82	57.588	316.76	-329.97	46.815	186.57	-723.2	146.72	480.38	-737.19	280.95	452.68	-710.24	279.3	353.76	-429	127.38	295.3	-459.85	117.63	227.48	-546.37	72.736	268.1	-811.3	334.54	378.3	-533.47	44.77	236.5	-831.96	316.35	411.6	-525.67	43.371	301.07	-824.31	311.39	351.43	-576.19	521.8	498.64	-537.76	466.3	527.19	-585.26	411.42	503.55	-619.77	452.12	485.01	-472.4	833.42	538.43	-407.64	865.76	542.77	-387.37	776.49	545.72	-448.82	746.59	537.31	-345.68	483.2	202.7	-400.7	484.73	191.4	-409.58	423.21	201.14	-356.27	428.29	210.85	-360.63	815.92	155.64	-431.12	814.68	139.45	-413.9	741.4	154.41	-349.56	743.74	168.64
77	0.31776	-126.92	1743.2	244.2	-366.65	1576.8	499.49	-391.23	1539.9	41.209	-397.4	1095.4	506.42	-371.66	1033	157.37	-602.84	1089.3	369.61	-588.23	1094.9	237.6	-611.25	1062	301.99	-396.77	1144.9	111.33	-424.73	1211	501.83	-432.66	953.67	116.4	-455.18	984.13	546.01	-389.92	582.4	523.35	-335.4	564.37	397.14	-367.82	564.04	344.64	-385.9	567.17	187.51	-602.8	75.434	413.58	-222.41	84.127	261.06	-663.16	125.34	355.96	-302.76	57.558	316.75	-329.94	46.832	186.6	-705.09	145.17	481.46	-722.63	278.65	452.87	-695.78	277.13	353.91	-428.65	127.58	295.33	-459.52	117.98	227.51	-546.21	73.088	268.11	-798.39	329.93	378.25	-533.42	45.058	236.52	-818.49	311.42	411.63	-525.65	43.69	301.03	-810.74	306.3	351.55	-564.49	521.09	499.05	-525.38	466.02	527.45	-572.27	410.62	503.84	-607.3	450.93	485.4	-464.11	834.17	538.35	-399.62	867.19	542.64	-378.46	778.15	545.68	-439.6	747.58	537.36	-343.75	483.01	202.83	-398.76	484.81	191.51	-407.93	423.33	201.25	-354.59	428.17	210.98	-355.92	815.9	155.65	-426.37	815.21	139.37	-409.75	741.8	154.4	-345.43	743.63	168.72
78	0.32194	-120.83	1743.8	244.66	-361.28	1577.3	499.83	-384.85	1540.7	41.444	-391.65	1096.2	506.11	-365.62	1033.5	157.07	-596.72	1089.9	369.33	-582.09	1095.7	237.3	-605.11	1062.6	301.69	-390.74	1145.6	111.14	-418.75	1211.5	501.74	-426.85	954.21	116.13	-448.65	984.96	545.75	-378.86	583.79	523.3	-323.95	566.37	397.15	-365.49	563.94	344.79	-383.62	567.2	187.66	-582.73	76.14	414.94	-222.3	83.999	261.07	-644.53	123.95	357.02	-302.7	57.529	316.74	-329.91	46.848	186.63	-686.84	143.44	482.52	-707.9	276.09	453.11	-681.17	274.73	354.09	-428.29	127.78	295.35	-459.18	118.33	227.54	-546.05	73.464	268.13	-785.27	325.05	378.28	-533.36	45.366	236.55	-804.79	306.21	411.72	-525.62	44.027	300.99	-796.93	300.94	351.73	-552.82	520.27	499.43	-513	465.67	527.69	-559.25	409.7	504.14	-594.81	449.59	485.78	-455.91	834.91	538.25	-391.68	868.61	542.5	-369.66	779.81	545.62	-430.48	748.59	537.39	-341.85	482.83	202.98	-396.85	484.9	191.64	-406.31	423.45	201.38	-352.94	428.05	211.11	-351.23	815.85	155.69	-421.64	815.72	139.3	-405.61	742.19	154.4	-341.34	743.51	168.83
79	0.32612	-114.76	1744.4	245.13	-355.88	1577.8	500.17	-378.47	1541.5	41.691	-385.97	1097	505.82	-359.59	1033.9	156.77	-590.61	1090.5	369.06	-575.97	1096.4	237.02	-598.99	1063.3	301.4	-384.73	1146.3	110.94	-412.79	1211.9	501.67	-421.06	954.73	115.88	-442.14	985.79	545.5	-367.9	585.2	523.22	-312.66	568.39	397.14	-363.17	563.84	344.95	-381.36	567.23	187.82	-562.59	76.734	416.23	-222.19	83.868	261.08	-625.78	122.46	358.04	-302.64	57.5	316.73	-329.87	46.864	186.66	-668.44	141.53	483.54	-693.02	273.29	453.37	-666.41	272.12	354.3	-427.94	128	295.37	-458.84	118.69	227.57	-545.89	73.862	268.14	-771.94	319.9	378.37	-533.3	45.692	236.58	-790.86	300.74	411.88	-525.59	44.381	300.94	-782.89	295.35	351.97	-541.19	519.33	499.77	-500.64	465.25	527.92	-546.2	408.69	504.43	-582.31	448.13	486.15	-447.78	835.66	538.13	-383.83	870.01	542.37	-360.95	781.46	545.54	-421.44	749.59	537.39	-339.97	482.65	203.15	-394.96	484.99	191.78	-404.7	423.57	201.52	-351.3	427.95	211.26	-346.59	815.78	155.75	-416.92	816.22	139.24	-401.5	742.56	154.41	-337.27	743.37	168.96
80	0.33031	-108.71	1744.9	245.62	-350.47	1578.3	500.51	-372.08	1542.3	41.95	-380.36	1097.8	505.55	-353.57	1034.3	156.47	-584.5	1091.1	368.82	-569.86	1097.1	236.75	-592.87	1063.9	301.13	-378.73	1147	110.75	-406.84	1212.3	501.62	-415.28	955.22	115.63	-435.66	986.62	545.27	-357.05	586.6	523.11	-301.53	570.43	397.1	-360.86	563.74	345.12	-379.13	567.27	188	-542.39	77.223	417.45	-222.08	83.734	261.08	-606.89	120.86	359.02	-302.57	57.471	316.71	-329.84	46.881	186.69	-649.91	139.46	484.54	-677.99	270.26	453.68	-651.51	269.3	354.55	-427.58	128.22	295.38	-458.49	119.06	227.6	-545.72	74.283	268.16	-758.41	314.51	378.54	-533.23	46.039	236.6	-776.69	295.02	412.11	-525.54	44.752	300.9	-768.61	289.53	352.28	-529.59	518.28	500.08	-488.3	464.76	528.12	-533.13	407.58	504.73	-569.8	446.54	486.51	-439.73	836.4	538	-376.07	871.4	542.23	-352.33	783.1	545.45	-412.49	750.6	537.36	-338.1	482.49	203.32	-393.08	485.09	191.93	-403.09	423.7	201.67	-349.68	427.85	211.41	-341.96	815.7	155.82	-412.22	816.69	139.19	-397.41	742.92	154.44	-333.23	743.22	169.1
81	0.33449	-102.66	1745.5	246.12	-345.04	1578.7	500.85	-365.69	1543.1	42.219	-374.82	1098.6	505.3	-347.56	1034.7	156.18	-578.4	1091.6	368.58	-563.76	1097.8	236.51	-586.76	1064.5	300.89	-372.74	1147.6	110.55	-400.92	1212.6	501.59	-409.53	955.67	115.39	-429.2	987.43	545.05	-346.32	588.01	522.96	-290.55	572.47	397.04	-358.54	563.64	345.29	-376.92	567.31	188.18	-522.13	77.615	418.59	-221.96	83.598	261.08	-587.89	119.17	359.96	-302.51	57.444	316.69	-329.8	46.897	186.73	-631.25	137.24	485.52	-662.8	267.01	454.01	-636.47	266.28	354.83	-427.21	128.45	295.39	-458.14	119.44	227.63	-545.55	74.724	268.17	-744.67	308.88	378.79	-533.16	46.404	236.63	-762.28	289.06	412.41	-525.48	45.138	300.86	-754.1	283.49	352.66	-518.04	517.13	500.34	-475.98	464.21	528.31	-520.04	406.39	505.02	-557.29	444.83	486.85	-431.74	837.14	537.87	-368.38	872.77	542.1	-343.8	784.72	545.34	-403.63	751.61	537.3	-336.26	482.33	203.5	-391.22	485.19	192.09	-401.5	423.83	201.82	-348.06	427.76	211.58	-337.37	815.59	155.91	-407.54	817.14	139.14	-393.33	743.27	154.47	-329.22	743.05	169.26
82	0.33867	-96.622	1746	246.62	-339.58	1579.2	501.18	-359.3	1543.9	42.499	-369.33	1099.3	505.08	-341.57	1035.1	155.88	-572.3	1092.2	368.37	-557.67	1098.4	236.28	-580.67	1065.1	300.67	-366.76	1148.3	110.34	-395.01	1213	501.57	-403.79	956.1	115.15	-422.76	988.23	544.85	-335.71	589.41	522.77	-279.73	574.51	396.95	-356.23	563.54	345.48	-374.72	567.35	188.37	-501.83	77.918	419.66	-221.84	83.461	261.07	-568.77	117.39	360.87	-302.44	57.42	316.66	-329.77	46.913	186.76	-612.46	134.88	486.46	-647.46	263.56	454.38	-621.29	263.08	355.14	-426.85	128.69	295.39	-457.78	119.83	227.66	-545.38	75.183	268.18	-730.72	303.03	379.12	-533.09	46.788	236.66	-747.64	282.88	412.79	-525.4	45.538	300.82	-739.35	277.27	353.1	-506.53	515.88	500.56	-463.7	463.61	528.47	-506.94	405.12	505.31	-544.77	443.01	487.17	-423.82	837.86	537.72	-360.77	874.12	541.96	-335.36	786.33	545.22	-394.85	752.6	537.23	-334.42	482.18	203.68	-389.37	485.3	192.26	-399.92	423.97	201.98	-346.46	427.68	211.75	-332.8	815.46	156.01	-402.87	817.56	139.11	-389.26	743.59	154.52	-325.22	742.86	169.45
83	0.34285	-90.594	1746.5	247.14	-334.1	1579.6	501.52	-352.9	1544.7	42.789	-363.9	1100	504.87	-335.58	1035.4	155.58	-566.22	1092.7	368.18	-551.59	1099.1	236.07	-574.59	1065.6	300.46	-360.79	1148.9	110.14	-389.11	1213.3	501.57	-398.09	956.49	114.93	-416.33	989.01	544.67	-325.22	590.8	522.55	-269.07	576.54	396.84	-353.92	563.44	345.68	-372.53	567.4	188.57	-481.48	78.142	420.66	-221.72	83.323	261.06	-549.54	115.55	361.74	-302.38	57.397	316.64	-329.73	46.93	186.79	-593.54	132.39	487.38	-631.97	259.92	454.79	-605.97	259.71	355.49	-426.48	128.93	295.39	-457.41	120.22	227.69	-545.19	75.658	268.19	-716.56	296.97	379.52	-533.02	47.189	236.68	-732.77	276.5	413.24	-525.3	45.948	300.78	-724.38	270.85	353.6	-495.07	514.54	500.72	-451.44	462.95	528.6	-493.84	403.79	505.6	-532.26	441.09	487.47	-415.96	838.57	537.57	-353.24	875.43	541.83	-327	787.91	545.09	-386.15	753.59	537.13	-332.6	482.04	203.88	-387.53	485.41	192.43	-398.34	424.11	202.14	-344.86	427.6	211.92	-328.25	815.31	156.12	-398.22	817.96	139.07	-385.21	743.9	154.59	-321.25	742.66	169.64
